<svg width="32" height="32" viewBox="0 0 32 32" fill="none" xmlns="http://www.w3.org/2000/svg">
<path d="M15.737 0.177368C7.17373 0.177368 0.205078 7.14602 0.205078 15.7093C0.205078 24.2725 7.17373 31.2412 15.737 31.2412C24.3002 31.2412 31.2689 24.2725 31.2689 15.7093C31.2689 7.14602 24.3002 0.177368 15.737 0.177368ZM15.737 2.76602C22.9011 2.76602 28.6802 8.54518 28.6802 15.7093C28.6834 18.8078 27.5723 21.8042 25.5497 24.1516C23.5271 26.499 20.7279 28.0409 17.6629 28.4959V19.4835H21.3492L21.9277 15.739H17.6629V13.694C17.6629 12.1408 18.1742 10.7598 19.6277 10.7598H21.964V7.4929C21.5537 7.43724 20.6852 7.31687 19.044 7.31687C15.6166 7.31687 13.6078 9.12633 13.6078 13.2501V15.739H10.0847V19.4835H13.6078V28.4636C10.5852 27.9661 7.83802 26.4101 5.857 24.0737C3.87597 21.7372 2.79022 18.7725 2.79373 15.7093C2.79373 8.54518 8.57289 2.76602 15.737 2.76602Z" fill="#4F4F4F"/>
</svg>
