<svg width="387" height="203" viewBox="0 0 387 203" fill="none" xmlns="http://www.w3.org/2000/svg">
<g clip-path="url(#clip0_825_38751)">
<path d="M-0.990323 160.937V123.437H6.46706V128.018H6.80442C7.13586 127.284 7.61526 126.538 8.24263 125.78C8.88184 125.011 9.71043 124.372 10.7284 123.863C11.7583 123.342 13.0367 123.082 14.5637 123.082C16.5523 123.082 18.387 123.602 20.0679 124.644C21.7488 125.674 23.0923 127.231 24.0985 129.314C25.1046 131.385 25.6077 133.984 25.6077 137.109C25.6077 140.151 25.1164 142.719 24.134 144.815C23.1633 146.898 21.8376 148.478 20.1567 149.555C18.4877 150.621 16.6174 151.153 14.5459 151.153C13.0781 151.153 11.8293 150.911 10.7994 150.425C9.78146 149.94 8.94694 149.33 8.2959 148.597C7.64486 147.851 7.1477 147.099 6.80442 146.342H6.5736V160.937H-0.990323ZM6.4138 137.073C6.4138 138.695 6.6387 140.109 7.08851 141.317C7.53832 142.524 8.18936 143.465 9.04164 144.14C9.89391 144.803 10.9297 145.134 12.1489 145.134C13.3799 145.134 14.4216 144.797 15.2739 144.122C16.1262 143.436 16.7713 142.489 17.2093 141.281C17.6591 140.062 17.884 138.659 17.884 137.073C17.884 135.499 17.665 134.114 17.227 132.918C16.789 131.723 16.1439 130.788 15.2916 130.113C14.4394 129.438 13.3918 129.101 12.1489 129.101C10.9178 129.101 9.87615 129.426 9.02388 130.077C8.18345 130.728 7.53832 131.652 7.08851 132.847C6.6387 134.043 6.4138 135.451 6.4138 137.073ZM28.1503 150.709V123.437H35.4834V128.195H35.7675C36.2646 126.503 37.0992 125.224 38.271 124.36C39.4429 123.484 40.7923 123.046 42.3193 123.046C42.6981 123.046 43.1065 123.07 43.5445 123.117C43.9825 123.164 44.3672 123.23 44.6986 123.312V130.024C44.3435 129.918 43.8522 129.823 43.2249 129.74C42.5975 129.657 42.0234 129.616 41.5026 129.616C40.3899 129.616 39.3956 129.858 38.5196 130.344C37.6555 130.817 36.969 131.48 36.46 132.332C35.9628 133.185 35.7142 134.167 35.7142 135.28V150.709H28.1503ZM57.1622 151.242C54.4041 151.242 52.019 150.656 50.0067 149.484C48.0062 148.301 46.4614 146.655 45.3724 144.548C44.2834 142.429 43.7389 139.973 43.7389 137.18C43.7389 134.362 44.2834 131.9 45.3724 129.793C46.4614 127.674 48.0062 126.029 50.0067 124.857C52.019 123.673 54.4041 123.082 57.1622 123.082C59.9202 123.082 62.2995 123.673 64.3 124.857C66.3123 126.029 67.863 127.674 68.952 129.793C70.041 131.9 70.5855 134.362 70.5855 137.18C70.5855 139.973 70.041 142.429 68.952 144.548C67.863 146.655 66.3123 148.301 64.3 149.484C62.2995 150.656 59.9202 151.242 57.1622 151.242ZM57.1977 145.383C58.4524 145.383 59.5 145.028 60.3405 144.317C61.1809 143.595 61.8142 142.613 62.2403 141.37C62.6783 140.127 62.8973 138.713 62.8973 137.126C62.8973 135.54 62.6783 134.126 62.2403 132.883C61.8142 131.64 61.1809 130.657 60.3405 129.935C59.5 129.213 58.4524 128.852 57.1977 128.852C55.9311 128.852 54.8658 129.213 54.0017 129.935C53.1494 130.657 52.5043 131.64 52.0663 132.883C51.6402 134.126 51.4271 135.54 51.4271 137.126C51.4271 138.713 51.6402 140.127 52.0663 141.37C52.5043 142.613 53.1494 143.595 54.0017 144.317C54.8658 145.028 55.9311 145.383 57.1977 145.383ZM97.551 123.437L88.0162 150.709H79.4935L69.9587 123.437H77.9488L83.6128 142.95H83.8969L89.5432 123.437H97.551ZM98.9218 150.709V123.437H106.486V150.709H98.9218ZM102.722 119.921C101.597 119.921 100.632 119.548 99.8273 118.803C99.0342 118.045 98.6377 117.139 98.6377 116.086C98.6377 115.044 99.0342 114.151 99.8273 113.405C100.632 112.647 101.597 112.268 102.722 112.268C103.846 112.268 104.805 112.647 105.598 113.405C106.403 114.151 106.805 115.044 106.805 116.086C106.805 117.139 106.403 118.045 105.598 118.803C104.805 119.548 103.846 119.921 102.722 119.921ZM120.095 151.153C118.023 151.153 116.147 150.621 114.466 149.555C112.797 148.478 111.471 146.898 110.489 144.815C109.518 142.719 109.033 140.151 109.033 137.109C109.033 133.984 109.536 131.385 110.542 129.314C111.548 127.231 112.886 125.674 114.555 124.644C116.236 123.602 118.076 123.082 120.077 123.082C121.604 123.082 122.876 123.342 123.894 123.863C124.924 124.372 125.753 125.011 126.38 125.78C127.019 126.538 127.505 127.284 127.836 128.018H128.067V114.346H135.613V150.709H128.156V146.342H127.836C127.481 147.099 126.978 147.851 126.327 148.597C125.688 149.33 124.853 149.94 123.823 150.425C122.805 150.911 121.562 151.153 120.095 151.153ZM122.492 145.134C123.711 145.134 124.741 144.803 125.581 144.14C126.433 143.465 127.084 142.524 127.534 141.317C127.996 140.109 128.227 138.695 128.227 137.073C128.227 135.451 128.002 134.043 127.552 132.847C127.102 131.652 126.451 130.728 125.599 130.077C124.747 129.426 123.711 129.101 122.492 129.101C121.249 129.101 120.201 129.438 119.349 130.113C118.497 130.788 117.851 131.723 117.413 132.918C116.975 134.114 116.756 135.499 116.756 137.073C116.756 138.659 116.975 140.062 117.413 141.281C117.863 142.489 118.508 143.436 119.349 144.122C120.201 144.797 121.249 145.134 122.492 145.134ZM151.761 151.242C148.956 151.242 146.541 150.674 144.517 149.538C142.504 148.389 140.954 146.768 139.865 144.673C138.776 142.566 138.231 140.074 138.231 137.197C138.231 134.392 138.776 131.93 139.865 129.811C140.954 127.692 142.487 126.041 144.463 124.857C146.452 123.673 148.784 123.082 151.459 123.082C153.258 123.082 154.933 123.372 156.484 123.952C158.046 124.52 159.408 125.378 160.568 126.526C161.74 127.674 162.651 129.119 163.302 130.859C163.953 132.587 164.279 134.611 164.279 136.931V139.008H141.25V134.321H157.159C157.159 133.232 156.922 132.267 156.448 131.427C155.975 130.586 155.318 129.929 154.478 129.456C153.649 128.971 152.684 128.728 151.583 128.728C150.435 128.728 149.417 128.994 148.529 129.527C147.653 130.048 146.967 130.752 146.47 131.64C145.973 132.516 145.718 133.492 145.706 134.57V139.026C145.706 140.376 145.955 141.542 146.452 142.524C146.961 143.507 147.677 144.264 148.6 144.797C149.524 145.33 150.619 145.596 151.885 145.596C152.726 145.596 153.495 145.477 154.193 145.241C154.892 145.004 155.49 144.649 155.987 144.175C156.484 143.702 156.863 143.122 157.123 142.435L164.119 142.897C163.764 144.578 163.036 146.046 161.935 147.3C160.846 148.543 159.437 149.514 157.709 150.212C155.993 150.899 154.01 151.242 151.761 151.242Z" fill="black"/>
<path d="M243.668 92.7456L235.118 55.5956H242.668L246.318 73.4456C247.018 77.3956 247.868 81.2956 248.668 85.2956H248.868C249.868 81.2956 250.868 77.3456 251.868 73.4456L256.668 55.5956H262.968L267.868 73.5956C268.818 77.4456 269.818 81.2956 270.818 85.2956H271.118C271.818 81.2956 272.518 77.4956 273.168 73.5956L276.918 55.5956H283.968L275.718 92.7456H266.468L261.618 74.4456C260.868 71.5456 260.268 68.5956 259.718 65.7456H259.468C258.868 68.5956 258.268 71.5456 257.568 74.4456L252.768 92.7456H243.668ZM297.566 93.2783C294.76 93.2783 292.345 92.7101 290.321 91.5737C288.309 90.4255 286.758 88.8038 285.669 86.7087C284.58 84.6017 284.036 82.11 284.036 79.2335C284.036 76.4281 284.58 73.966 285.669 71.8472C286.758 69.7283 288.291 68.077 290.268 66.8933C292.257 65.7096 294.589 65.1178 297.264 65.1178C299.063 65.1178 300.738 65.4078 302.289 65.9878C303.851 66.556 305.212 67.4142 306.372 68.5624C307.544 69.7106 308.456 71.1547 309.107 72.8948C309.758 74.623 310.083 76.6471 310.083 78.9672V81.0446H287.054V76.3571H302.963C302.963 75.2681 302.727 74.3034 302.253 73.4629C301.78 72.6225 301.123 71.9655 300.282 71.4921C299.454 71.0067 298.489 70.7641 297.388 70.7641C296.24 70.7641 295.222 71.0304 294.334 71.5631C293.458 72.0839 292.772 72.7882 292.274 73.676C291.777 74.5519 291.523 75.5285 291.511 76.6057V81.0624C291.511 82.4118 291.759 83.5778 292.257 84.5602C292.766 85.5427 293.482 86.3003 294.405 86.833C295.328 87.3656 296.423 87.632 297.69 87.632C298.53 87.632 299.3 87.5136 299.998 87.2769C300.697 87.0401 301.294 86.685 301.791 86.2115C302.289 85.738 302.667 85.158 302.928 84.4715L309.924 84.9331C309.568 86.614 308.84 88.0818 307.74 89.3365C306.651 90.5794 305.242 91.5501 303.514 92.2484C301.797 92.935 299.815 93.2783 297.566 93.2783Z" fill="black"/>
<path d="M254.52 122.117V117.367H228.965V122.117H254.52ZM254.52 134.277V129.432H228.965V134.277H254.52ZM265.35 109.482V142.257H218.61V109.482H265.35ZM213.765 156.887L203.695 159.927V182.062C203.695 187.287 202.84 190.042 199.99 191.752C197.14 193.652 192.96 194.032 186.88 193.937C186.595 191.182 185.36 186.527 183.935 183.582C187.45 183.677 190.68 183.677 191.82 183.582C192.96 183.582 193.435 183.202 193.435 181.967V162.967C190.3 163.822 187.45 164.677 184.695 165.437L182.13 154.512C185.36 153.847 189.16 152.802 193.435 151.757V134.942H183.175V124.492H193.435V106.537H203.695V124.492H213.195V134.942H203.695V149.002L212.245 146.722L213.765 156.887ZM246.92 172.942V183.867C249.105 184.057 251.195 184.152 253.57 184.152C256.8 184.152 268.58 184.152 272.665 184.057C271.335 186.337 270.005 191.087 269.625 193.937H253.095C240.65 193.937 231.055 191.657 224.595 180.162C222.125 186.147 218.8 191.182 214.62 195.077C212.91 193.272 208.635 189.757 206.355 188.332C214.24 182.062 218.135 171.517 219.56 158.597L229.82 159.832C229.345 163.252 228.775 166.482 228.015 169.427C230.105 174.937 232.86 178.357 236.28 180.542V155.747H213.955V146.627H270.1V155.747H246.92V164.107H265.065V172.942H246.92ZM296.985 106.727L307.53 110.052C305.06 116.607 301.925 123.352 298.505 129.812V195.172H287.39V147.007C285.395 149.572 283.4 151.852 281.405 154.037C280.36 151.187 277.32 145.012 275.325 142.257C283.875 133.707 292.235 120.312 296.985 106.727ZM319.12 169.712L329.665 172.942C324.915 181.207 317.315 189.567 310.76 194.982C308.67 192.892 304.395 189.377 301.925 187.857C308.575 183.392 315.225 176.457 319.12 169.712ZM339.83 174.652L348.855 169.617C355.03 175.602 361.585 183.677 365.005 189.187L355.505 195.172C352.465 189.472 345.815 180.732 339.83 174.652ZM327.575 135.892V154.797H341.35V135.892H327.575ZM352.37 154.797H365.48V165.817H303.825V154.797H316.555V135.892H306.2V125.062H316.555V107.297H327.575V125.062H341.35V107.202H352.37V125.062H364.72V135.892H352.37V154.797Z" fill="black"/>
<path d="M125.85 23.7507L116.73 30.1157C114.26 25.7457 108.37 19.0007 103.24 14.4407L111.79 8.64568C116.825 13.0157 123.095 19.2857 125.85 23.7507ZM113.69 46.7407L123.665 51.0157C119.39 58.7107 114.07 65.6457 107.895 71.8207C110.46 79.1357 113.405 83.5057 116.255 83.5057C118.25 83.5057 119.39 78.9457 119.865 67.7357C122.335 70.3957 126.135 72.9607 129.175 74.1957C127.37 90.8207 123.855 95.0007 115.21 95.0007C108.275 95.0007 102.955 89.3007 98.8701 79.9907C93.3601 84.5507 87.3751 88.4457 81.2951 91.5807C79.6801 88.9207 76.5451 85.0257 73.7901 82.4607C81.1051 79.1357 88.4201 74.4807 94.9751 69.0657C92.8851 61.5607 91.2701 52.9157 90.1301 43.6057H70.8451V54.4357C75.6901 53.5807 80.6301 52.6307 85.4751 51.7757L86.3301 62.0357L70.8451 65.1707V81.4157C70.8451 87.5907 69.5151 90.6307 65.7151 92.4357C62.0101 94.2407 56.3101 94.7157 48.6151 94.6207C48.1401 91.4857 46.2401 86.3557 44.6251 83.2207C49.9451 83.5057 55.4551 83.4107 57.1651 83.3157C58.8751 83.3157 59.4451 82.8407 59.4451 81.3207V67.5457C53.3651 68.7807 47.4751 70.0157 42.4401 70.9657L39.6851 59.5657C45.1001 58.7107 51.9401 57.6657 59.4451 56.3357V43.6057H41.4901V32.8707H59.4451V22.0407C54.3151 22.8957 49.0901 23.5607 44.2451 24.1307C43.7701 21.3757 42.2501 17.1957 41.0151 14.6307C54.3151 12.8257 69.0401 9.78568 78.7301 6.65068L86.3301 16.2457C81.5801 17.6707 76.3551 18.9057 70.8451 20.0457V32.8707H89.0851C88.3251 24.3207 88.0401 15.4857 87.9451 6.84068H99.8201C99.6301 15.6757 100.01 24.5107 100.77 32.8707H126.61V43.6057H101.91C102.67 49.3057 103.62 54.8157 104.665 59.6607C108.085 55.5757 111.22 51.3007 113.69 46.7407ZM178.575 19.5707H170.785V24.9857H178.575V19.5707ZM170.785 38.6657H178.575V33.0607H170.785V38.6657ZM187.125 11.0207V47.2157H170.785V94.4307H160.335V11.2107C158.435 16.6257 156.25 22.2307 153.78 27.6457V94.6207H143.045V47.1207C141.145 49.9707 139.15 52.6307 137.155 54.9107C136.3 52.2507 133.545 45.6957 131.74 42.7507C139.435 33.9157 146.37 20.0457 150.55 6.08068L161 9.21568L160.43 11.0207H187.125ZM200.33 38.6657H208.785V33.0607H200.33V38.6657ZM208.785 19.5707H200.33V24.9857H208.785V19.5707ZM219.615 11.0207V81.5107C219.615 87.7807 218.285 90.8207 214.485 92.4357C210.59 94.2407 204.605 94.5257 195.675 94.5257C195.295 91.3907 193.49 86.4507 192.065 83.6007C197.86 83.9807 204.415 83.8857 206.315 83.7907C208.12 83.7907 208.785 83.2207 208.785 81.4157V47.2157H191.4V11.0207H219.615Z" fill="black"/>
</g>
<defs>
<clipPath id="clip0_825_38751">
<rect width="404.665" height="202.333" fill="white" transform="translate(-17.7158 0.542969)"/>
</clipPath>
</defs>
</svg>
